# Blender v2.83.14 OBJ File: 'icons.blend'
# www.blender.org
mtllib phone fast.mtl
o Plane.003
v 13.576880 0.100000 -4.576948
v 12.462385 0.100000 -5.515455
v 14.589341 0.100000 -4.945539
v 15.337461 0.100000 -7.737563
v 13.210505 0.100000 -8.307479
v 13.365893 0.100000 -4.633482
v 13.328891 0.100000 -5.071542
v 13.390128 0.100000 -5.106897
v 14.273984 0.100000 -8.022521
v 13.352187 0.100000 -5.101902
v 13.310143 0.099997 -4.808390
v 13.274788 0.100000 -4.869627
v 13.279782 0.100000 -4.831686
v 13.154907 0.100000 -4.690015
v 13.562866 0.099997 -4.792437
v 13.501629 0.100000 -4.757081
v 13.539570 0.099997 -4.762076
v 13.581614 0.100000 -5.055589
v 13.616969 0.100000 -4.994351
v 13.611974 0.100000 -5.032293
v 14.388228 0.100000 -8.448889
v 12.451121 0.099997 -4.878594
v 14.280664 0.100000 -4.388369
v 13.720501 0.100000 -5.178344
v 13.331225 0.100000 -5.282650
v 13.525863 0.100000 -5.230497
v 12.272253 0.100000 -5.188404
v 12.362600 0.099997 -4.922248
v 12.297523 0.100000 -4.996454
v 12.265798 0.100000 -5.089916
v 14.590475 0.100000 -4.567238
v 14.546822 0.100000 -4.478717
v 14.472615 0.100000 -4.413640
v 14.379153 0.099997 -4.381914
v 13.163647 0.099997 -8.515132
v 13.473457 0.100000 -8.694001
v 13.207301 0.100000 -8.603653
v 13.281507 0.100000 -8.668731
v 13.374969 0.100000 -8.700457
v 15.303000 0.100000 -8.203776
v 15.481869 0.099997 -7.893967
v 15.391521 0.100000 -8.160123
v 15.456598 0.100000 -8.085917
v 15.488324 0.100000 -7.992455
v 12.233855 -0.100000 -4.922248
v 11.664839 -0.099997 -4.922248
v 12.182256 -0.099997 -4.981086
v 12.164734 -0.100000 -5.011823
v 11.703711 -0.100000 -5.011822
v 11.613239 -0.100000 -4.981086
v 12.148227 -0.099997 -5.074548
v 12.145189 -0.099997 -5.105284
v 11.764894 -0.100000 -5.105285
v 11.685608 -0.100000 -5.074548
v 12.149475 -0.100000 -5.170669
v 11.769180 -0.099997 -5.170669
v 13.576880 -0.100000 -4.576948
v 12.462385 -0.100000 -5.515455
v 14.589341 -0.100000 -4.945539
v 15.337461 -0.100000 -7.737563
v 13.210505 -0.100000 -8.307479
v 13.365893 -0.100000 -4.633482
v 13.328891 -0.100000 -5.071542
v 13.390128 -0.100000 -5.106897
v 14.273984 -0.100000 -8.022521
v 13.352187 -0.100000 -5.101902
v 13.310143 -0.099997 -4.808390
v 13.274788 -0.100000 -4.869627
v 13.279782 -0.100000 -4.831686
v 13.154907 -0.100000 -4.690015
v 13.562866 -0.099997 -4.792437
v 13.501629 -0.100000 -4.757081
v 13.539570 -0.099997 -4.762076
v 13.581614 -0.100000 -5.055589
v 13.616969 -0.100000 -4.994351
v 13.611974 -0.100000 -5.032293
v 14.388228 -0.100000 -8.448889
v 12.451121 -0.099997 -4.878594
v 14.280664 -0.100000 -4.388369
v 13.720501 -0.100000 -5.178344
v 13.331225 -0.100000 -5.282650
v 13.525863 -0.100000 -5.230497
v 12.272253 -0.100000 -5.188404
v 12.362600 -0.099997 -4.922248
v 12.297523 -0.100000 -4.996454
v 12.265798 -0.100000 -5.089916
v 14.590475 -0.100000 -4.567238
v 14.546822 -0.100000 -4.478717
v 14.472615 -0.100000 -4.413640
v 14.379153 -0.099997 -4.381914
v 13.163647 -0.099997 -8.515132
v 13.473457 -0.100000 -8.694001
v 13.207301 -0.100000 -8.603653
v 13.281507 -0.100000 -8.668731
v 13.374969 -0.100000 -8.700457
v 15.303000 -0.100000 -8.203776
v 15.481869 -0.099997 -7.893967
v 15.391521 -0.100000 -8.160123
v 15.456598 -0.100000 -8.085917
v 15.488324 -0.100000 -7.992455
v 12.233855 0.100000 -4.922248
v 11.664839 0.099997 -4.922248
v 12.182256 0.099997 -4.981086
v 12.164734 0.100000 -5.011823
v 11.703711 0.100000 -5.011822
v 11.613239 0.100000 -4.981086
v 12.148227 0.099997 -5.074548
v 12.145189 0.099997 -5.105284
v 11.764894 0.100000 -5.105285
v 11.685608 0.100000 -5.074548
v 12.149475 0.100000 -5.170669
v 11.769180 0.099997 -5.170669
v 13.720501 0.100000 -5.178344
v 14.589341 0.100000 -4.945539
v 14.589341 0.100000 -4.945539
v 15.337461 0.100000 -7.737563
v 15.337461 0.100000 -7.737563
v 12.462385 0.100000 -5.515455
v 12.462385 0.100000 -5.515455
v 13.331225 0.100000 -5.282650
v 13.210505 0.100000 -8.307479
v 13.210505 0.100000 -8.307479
v 12.451121 0.099997 -4.878594
v 13.154907 0.100000 -4.690015
v 13.365893 0.100000 -4.633482
v 13.328891 0.100000 -5.071542
v 13.352187 0.100000 -5.101902
v 13.390128 0.100000 -5.106897
v 13.310143 0.099997 -4.808390
v 13.279782 0.100000 -4.831686
v 13.274788 0.100000 -4.869627
v 13.562866 0.099997 -4.792437
v 13.539570 0.099997 -4.762076
v 13.501629 0.100000 -4.757081
v 13.581614 0.100000 -5.055589
v 13.611974 0.100000 -5.032293
v 13.616969 0.100000 -4.994351
v 13.576880 0.100000 -4.576948
v 14.273984 0.100000 -8.022521
v 14.280664 0.100000 -4.388369
v 13.525863 0.100000 -5.230497
v 14.379153 0.099997 -4.381914
v 14.388228 0.100000 -8.448889
v 13.473457 0.100000 -8.694001
v 13.374969 0.100000 -8.700457
v 13.281507 0.100000 -8.668731
v 13.207301 0.100000 -8.603653
v 13.163647 0.099997 -8.515132
v 12.272253 0.100000 -5.188404
v 12.265798 0.100000 -5.089916
v 12.297523 0.100000 -4.996454
v 12.362600 0.099997 -4.922248
v 14.590475 0.100000 -4.567238
v 15.481869 0.099997 -7.893967
v 15.488324 0.100000 -7.992455
v 15.456598 0.100000 -8.085917
v 15.391521 0.100000 -8.160123
v 15.303000 0.100000 -8.203776
v 14.472615 0.100000 -4.413640
v 14.546822 0.100000 -4.478717
v 12.233855 -0.100000 -4.922248
v 12.233855 -0.100000 -4.922248
v 11.664839 -0.099997 -4.922248
v 11.703711 -0.100000 -5.011822
v 11.703711 -0.100000 -5.011822
v 12.164734 -0.100000 -5.011823
v 12.164734 -0.100000 -5.011823
v 12.182256 -0.099997 -4.981086
v 11.613239 -0.100000 -4.981086
v 11.613239 -0.100000 -4.981086
v 12.148227 -0.099997 -5.074548
v 12.148227 -0.099997 -5.074548
v 11.685608 -0.100000 -5.074548
v 11.685608 -0.100000 -5.074548
v 11.764894 -0.100000 -5.105285
v 11.764894 -0.100000 -5.105285
v 12.145189 -0.099997 -5.105284
v 12.145189 -0.099997 -5.105284
v 12.149475 -0.100000 -5.170669
v 12.149475 -0.100000 -5.170669
v 11.769180 -0.099997 -5.170669
v 11.769180 -0.099997 -5.170669
v 13.720501 -0.100000 -5.178344
v 14.589341 -0.100000 -4.945539
v 14.589341 -0.100000 -4.945539
v 15.337461 -0.100000 -7.737563
v 15.337461 -0.100000 -7.737563
v 12.462385 -0.100000 -5.515455
v 12.462385 -0.100000 -5.515455
v 13.331225 -0.100000 -5.282650
v 13.210505 -0.100000 -8.307479
v 13.210505 -0.100000 -8.307479
v 12.451121 -0.099997 -4.878594
v 13.154907 -0.100000 -4.690015
v 13.365893 -0.100000 -4.633482
v 13.328891 -0.100000 -5.071542
v 13.352187 -0.100000 -5.101902
v 13.390128 -0.100000 -5.106897
v 13.310143 -0.099997 -4.808390
v 13.279782 -0.100000 -4.831686
v 13.274788 -0.100000 -4.869627
v 13.562866 -0.099997 -4.792437
v 13.539570 -0.099997 -4.762076
v 13.501629 -0.100000 -4.757081
v 13.581614 -0.100000 -5.055589
v 13.611974 -0.100000 -5.032293
v 13.616969 -0.100000 -4.994351
v 13.576880 -0.100000 -4.576948
v 14.273984 -0.100000 -8.022521
v 14.280664 -0.100000 -4.388369
v 13.525863 -0.100000 -5.230497
v 14.379153 -0.099997 -4.381914
v 14.388228 -0.100000 -8.448889
v 13.473457 -0.100000 -8.694001
v 13.374969 -0.100000 -8.700457
v 13.281507 -0.100000 -8.668731
v 13.207301 -0.100000 -8.603653
v 13.163647 -0.099997 -8.515132
v 12.272253 -0.100000 -5.188404
v 12.265798 -0.100000 -5.089916
v 12.297523 -0.100000 -4.996454
v 12.362600 -0.099997 -4.922248
v 14.590475 -0.100000 -4.567238
v 15.481869 -0.099997 -7.893967
v 15.488324 -0.100000 -7.992455
v 15.456598 -0.100000 -8.085917
v 15.391521 -0.100000 -8.160123
v 15.303000 -0.100000 -8.203776
v 14.472615 -0.100000 -4.413640
v 14.546822 -0.100000 -4.478717
v 12.233855 0.100000 -4.922248
v 12.233855 0.100000 -4.922248
v 11.664839 0.099997 -4.922248
v 11.703711 0.100000 -5.011822
v 11.703711 0.100000 -5.011822
v 12.164734 0.100000 -5.011823
v 12.164734 0.100000 -5.011823
v 12.182256 0.099997 -4.981086
v 11.613239 0.100000 -4.981086
v 11.613239 0.100000 -4.981086
v 12.148227 0.099997 -5.074548
v 12.148227 0.099997 -5.074548
v 11.685608 0.100000 -5.074548
v 11.685608 0.100000 -5.074548
v 11.764894 0.100000 -5.105285
v 11.764894 0.100000 -5.105285
v 12.145189 0.099997 -5.105284
v 12.145189 0.099997 -5.105284
v 12.149475 0.100000 -5.170669
v 12.149475 0.100000 -5.170669
v 11.769180 0.099997 -5.170669
v 11.769180 0.099997 -5.170669
vt 0.000000 0.000000
vt 0.000000 0.000000
vt 0.000000 0.000000
vt 0.000000 0.000000
vt 0.000000 0.000000
vt 0.000000 0.000000
vt 0.000000 0.000000
vt 0.000000 0.000000
vt 0.000000 0.000000
vt 0.000000 0.000000
vt 0.000000 0.000000
vt 0.000000 0.000000
vt 0.000000 0.000000
vt 0.000000 0.000000
vt 0.000000 0.000000
vt 0.000000 0.000000
vt 0.000000 0.000000
vt 0.000000 0.000000
vt 0.000000 0.000000
vt 0.000000 0.000000
vt 0.000000 0.000000
vt 0.000000 0.000000
vt 0.000000 0.000000
vt 0.000000 0.000000
vt 0.000000 0.000000
vt 0.000000 0.000000
vt 0.000000 0.000000
vt 0.000000 0.000000
vt 0.000000 0.000000
vt 0.000000 0.000000
vt 0.000000 0.000000
vt 0.000000 0.000000
vt 0.000000 0.000000
vt 0.000000 0.000000
vt 0.000000 0.000000
vt 0.000000 0.000000
vt 0.000000 0.000000
vt 0.000000 0.000000
vt 0.000000 0.000000
vt 0.000000 0.000000
vt 0.000000 0.000000
vt 0.000000 0.000000
vt 0.000000 0.000000
vt 0.000000 0.000000
vt 0.000000 0.000000
vt 0.000000 0.000000
vt 0.000000 0.000000
vt 0.000000 0.000000
vt 0.000000 0.000000
vt 0.000000 0.000000
vt 0.000000 0.000000
vt 0.000000 0.000000
vt 0.000000 0.000000
vt 0.000000 0.000000
vt 0.000000 0.000000
vt 0.000000 0.000000
vt 0.000000 0.000000
vt 0.000000 0.000000
vt 0.000000 0.000000
vt 0.000000 0.000000
vt 0.000000 0.000000
vt 0.000000 0.000000
vt 0.000000 0.000000
vt 0.000000 0.000000
vt 0.000000 0.000000
vt 0.000000 0.000000
vt 0.000000 0.000000
vt 0.000000 0.000000
vt 0.437867 0.104698
vt 0.443969 0.113649
vt 0.239560 0.156475
vt 0.437867 0.051777
vt 0.140533 0.000000
vt 0.281067 0.000000
vt 0.562133 0.000000
vt 0.781067 0.000000
vt 0.541300 0.039119
vt 0.556032 0.042826
vt 0.458700 0.039119
vt 0.562133 0.051777
vt 0.698307 0.156475
vt 0.562133 0.104698
vt 0.443968 0.042826
vt 0.590173 0.156475
vt 0.562133 0.156475
vt 0.541300 0.117356
vt 0.556031 0.113649
vt 0.525309 0.156475
vt 0.458700 0.117356
vt 0.998679 0.945980
vt 0.991253 0.966154
vt 0.968925 0.983236
vt 0.934906 0.995528
vt 0.894601 1.000000
vt 0.500000 1.000000
vt 0.500000 0.888251
vt 0.958747 0.888251
vt 0.933584 0.075825
vt 0.949440 0.111043
vt 0.962349 0.148868
vt 0.974917 0.183577
vt 0.980695 0.210494
vt 0.890533 0.000000
vt 0.301693 0.156475
vt 0.041253 0.888251
vt 0.105399 1.000000
vt 0.065109 0.995478
vt 0.031111 0.982987
vt 0.008762 0.965443
vt 0.001321 0.944728
vt 0.019305 0.192188
vt 0.025175 0.165572
vt 0.039825 0.132604
vt 0.059335 0.097772
vt 0.041253 0.156475
vt 0.437867 0.104698
vt 0.239560 0.156475
vt 0.443969 0.113649
vt 0.437867 0.051777
vt 0.281067 0.000000
vt 0.140533 0.000000
vt 0.562133 0.000000
vt 0.541300 0.039119
vt 0.781067 0.000000
vt 0.556032 0.042826
vt 0.458700 0.039119
vt 0.562133 0.051777
vt 0.562133 0.104698
vt 0.698307 0.156475
vt 0.443968 0.042826
vt 0.590173 0.156475
vt 0.541300 0.117356
vt 0.562133 0.156475
vt 0.556031 0.113649
vt 0.458700 0.117356
vt 0.525309 0.156475
vt 0.998679 0.945980
vt 0.980695 0.210494
vt 0.974917 0.183577
vt 0.962349 0.148868
vt 0.949440 0.111043
vt 0.933584 0.075825
vt 0.958747 0.888251
vt 0.500000 0.888251
vt 0.500000 1.000000
vt 0.894601 1.000000
vt 0.934906 0.995528
vt 0.968925 0.983236
vt 0.991253 0.966154
vt 0.890533 0.000000
vt 0.301693 0.156475
vt 0.041253 0.888251
vt 0.041253 0.156475
vt 0.059335 0.097772
vt 0.039825 0.132604
vt 0.025175 0.165572
vt 0.019305 0.192188
vt 0.001321 0.944728
vt 0.008762 0.965443
vt 0.031111 0.982987
vt 0.065109 0.995478
vt 0.105399 1.000000
vt 0.590173 0.156475
vt 0.698307 0.156475
vt 0.698307 0.156475
vt 0.590173 0.156475
vt 0.698307 0.156475
vt 0.958747 0.888251
vt 0.958747 0.888251
vt 0.698307 0.156475
vt 0.301693 0.156475
vt 0.525309 0.156475
vt 0.525309 0.156475
vt 0.301693 0.156475
vt 0.041253 0.888251
vt 0.041253 0.156475
vt 0.041253 0.156475
vt 0.041253 0.888251
vt 0.281067 0.000000
vt 0.140533 0.000000
vt 0.140533 0.000000
vt 0.281067 0.000000
vt 0.562133 0.000000
vt 0.562133 0.000000
vt 0.443969 0.113649
vt 0.437867 0.104698
vt 0.437867 0.104698
vt 0.443969 0.113649
vt 0.458700 0.117356
vt 0.458700 0.117356
vt 0.443968 0.042826
vt 0.458700 0.039119
vt 0.458700 0.039119
vt 0.443968 0.042826
vt 0.437867 0.051777
vt 0.437867 0.051777
vt 0.556032 0.042826
vt 0.562133 0.051777
vt 0.562133 0.051777
vt 0.556032 0.042826
vt 0.541300 0.039119
vt 0.541300 0.039119
vt 0.556031 0.113649
vt 0.541300 0.117356
vt 0.541300 0.117356
vt 0.556031 0.113649
vt 0.562133 0.104698
vt 0.562133 0.104698
vt 0.781067 0.000000
vt 0.781067 0.000000
vt 0.500000 0.888251
vt 0.041253 0.888251
vt 0.041253 0.888251
vt 0.500000 0.888251
vt 0.890533 0.000000
vt 0.890533 0.000000
vt 0.562133 0.156475
vt 0.562133 0.156475
vt 0.958747 0.888251
vt 0.958747 0.888251
vt 0.949440 0.111043
vt 0.933584 0.075825
vt 0.933584 0.075825
vt 0.949440 0.111043
vt 0.105399 1.000000
vt 0.500000 1.000000
vt 0.500000 1.000000
vt 0.105399 1.000000
vt 0.065109 0.995478
vt 0.065109 0.995478
vt 0.031111 0.982987
vt 0.031111 0.982987
vt 0.008762 0.965443
vt 0.008762 0.965443
vt 0.001321 0.944728
vt 0.001321 0.944728
vt 0.019305 0.192188
vt 0.019305 0.192188
vt 0.025175 0.165572
vt 0.025175 0.165572
vt 0.039825 0.132604
vt 0.039825 0.132604
vt 0.059335 0.097772
vt 0.059335 0.097772
vt 0.998679 0.945980
vt 0.980695 0.210494
vt 0.980695 0.210494
vt 0.998679 0.945980
vt 0.991253 0.966154
vt 0.991253 0.966154
vt 0.968925 0.983236
vt 0.968925 0.983236
vt 0.934906 0.995528
vt 0.934906 0.995528
vt 0.894601 1.000000
vt 0.894601 1.000000
vt 0.962349 0.148868
vt 0.962349 0.148868
vt 0.974917 0.183577
vt 0.974917 0.183577
vn 0.0000 -1.0000 -0.0000
vn 0.0000 1.0000 -0.0000
vn -0.0000 0.0000 1.0000
vn 0.0000 0.0000 -1.0000
vn 0.7518 0.0000 -0.6593
vn -0.7518 0.0000 0.6593
vn -0.9608 0.0000 0.2773
vn 0.9671 0.0000 -0.2545
vn 0.9979 0.0000 0.0654
vn -0.9979 0.0000 -0.0654
vn 0.2588 0.0000 -0.9659
vn -0.9659 0.0000 -0.2588
vn 0.9659 0.0000 0.2588
vn -0.2588 0.0000 0.9659
vn -0.3522 0.0000 0.9359
vn 0.5000 0.0000 0.8660
vn 0.8968 0.0000 0.4423
vn -0.0654 0.0000 0.9978
vn 0.8660 0.0000 -0.5000
vn 0.4423 0.0000 -0.8968
vn 0.9978 0.0000 0.0654
vn -0.5000 0.0000 -0.8660
vn -0.8968 0.0000 -0.4423
vn 0.0654 0.0000 -0.9978
vn -0.8660 0.0000 0.5000
vn -0.4423 0.0000 0.8968
vn -0.9978 0.0000 -0.0654
vn -0.1629 0.0000 0.9866
vn 0.1305 0.0000 0.9914
vn 0.1629 0.0000 -0.9866
vn -0.1305 0.0000 -0.9914
vn -0.7933 0.0000 -0.6088
vn -0.9359 0.0000 -0.3522
vn -0.9866 0.0000 -0.1629
vn -0.9914 0.0000 0.1305
vn -0.6088 0.0000 0.7933
vn 0.9866 0.0000 0.1629
vn 0.9359 0.0000 0.3522
vn 0.9914 0.0000 -0.1305
vn 0.6088 0.0000 -0.7933
vn 0.3522 0.0000 -0.9359
vn 0.7933 0.0000 0.6088
usemtl None
s off
f 173/1/1 171/2/1 166/3/1 164/4/1
f 179/5/1 177/6/1 175/7/1 181/8/1
f 168/9/1 161/10/1 163/11/1 169/12/1
f 243/13/2 234/14/2 236/15/2 241/16/2
f 249/17/2 251/18/2 245/19/2 247/20/2
f 238/21/2 239/22/2 233/23/2 231/24/2
f 46/25/3 162/26/3 232/27/3 102/28/3
f 165/29/3 167/30/3 237/31/3 235/32/3
f 47/33/4 170/34/4 240/35/4 103/36/4
f 172/37/4 174/38/4 244/39/4 242/40/4
f 176/41/3 178/42/3 248/43/3 246/44/3
f 45/45/5 47/33/5 103/36/5 101/46/5
f 50/47/6 46/25/6 102/28/6 106/48/6
f 54/49/7 49/50/7 105/51/7 110/52/7
f 48/53/8 51/54/8 107/55/8 104/56/8
f 52/57/9 180/58/9 250/59/9 108/60/9
f 182/61/10 53/62/10 109/63/10 252/64/10
f 55/65/4 56/66/4 112/67/4 111/68/4
s 1
f 126/69/2 127/70/2 118/71/2
f 131/72/2 118/71/2 123/73/2 124/74/2
f 125/75/2 138/76/2 134/77/2
f 134/77/2 138/76/2 133/78/2
f 134/77/2 129/79/2 125/75/2
f 132/80/2 114/81/2 137/82/2
f 124/74/2 130/83/2 131/72/2
f 124/74/2 125/75/2 129/79/2
f 129/79/2 130/83/2 124/74/2
f 113/84/2 141/85/2 135/86/2
f 136/87/2 114/81/2 113/84/2
f 141/85/2 120/88/2 128/89/2
f 135/86/2 136/87/2 113/84/2
f 128/89/2 135/86/2 141/85/2
f 132/80/2 133/78/2 138/76/2
f 131/72/2 126/69/2 118/71/2
f 154/90/2 155/91/2 156/92/2 157/93/2 158/94/2 143/95/2 139/96/2 116/97/2 114/81/2 140/98/2 142/99/2 159/100/2 160/101/2 153/102/2
f 140/103/2 114/81/2 132/80/2 138/76/2
f 114/81/2 136/87/2 137/82/2
f 118/104/2 127/70/2 120/88/2
f 127/70/2 128/89/2 120/88/2
f 121/105/2 139/96/2 143/95/2 144/106/2 145/107/2 146/108/2 147/109/2 148/110/2 149/111/2 150/112/2 151/113/2 152/114/2 123/73/2 118/115/2
f 196/116/1 188/117/1 197/118/1
f 201/119/1 194/120/1 193/121/1 188/117/1
f 195/122/1 204/123/1 208/124/1
f 204/123/1 203/125/1 208/124/1
f 204/123/1 195/122/1 199/126/1
f 202/127/1 207/128/1 184/129/1
f 194/120/1 201/119/1 200/130/1
f 194/120/1 199/126/1 195/122/1
f 199/126/1 194/120/1 200/130/1
f 183/131/1 205/132/1 211/133/1
f 206/134/1 183/131/1 184/129/1
f 211/133/1 198/135/1 190/136/1
f 205/132/1 183/131/1 206/134/1
f 198/135/1 211/133/1 205/132/1
f 202/127/1 208/124/1 203/125/1
f 201/119/1 188/117/1 196/116/1
f 224/137/1 223/138/1 230/139/1 229/140/1 212/141/1 210/142/1 184/129/1 186/143/1 209/144/1 213/145/1 228/146/1 227/147/1 226/148/1 225/149/1
f 210/150/1 208/124/1 202/127/1 184/129/1
f 184/129/1 207/128/1 206/134/1
f 188/151/1 190/136/1 197/118/1
f 197/118/1 190/136/1 198/135/1
f 191/152/1 188/153/1 193/121/1 222/154/1 221/155/1 220/156/1 219/157/1 218/158/1 217/159/1 216/160/1 215/161/1 214/162/1 213/145/1 209/144/1
f 24/163/11 115/164/11 185/165/11 80/166/11
f 3/167/12 117/168/12 187/169/12 59/170/12
f 119/171/11 25/172/11 81/173/11 189/174/11
f 122/175/13 2/176/13 58/177/13 192/178/13
f 14/179/14 22/180/15 78/181/15 70/182/14
f 6/183/14 14/179/14 70/182/14 62/184/14
f 10/185/16 7/186/17 63/187/17 66/188/16
f 8/189/18 10/185/16 66/188/16 64/190/18
f 13/191/19 11/192/20 67/193/20 69/194/19
f 12/195/21 13/191/19 69/194/19 68/196/21
f 17/197/22 15/198/23 71/199/23 73/200/22
f 16/201/24 17/197/22 73/200/22 72/202/24
f 20/203/25 18/204/26 74/205/26 76/206/25
f 19/207/27 20/203/25 76/206/25 75/208/27
f 18/204/26 8/189/18 64/190/18 74/205/26
f 7/186/17 12/195/21 68/196/21 63/187/17
f 11/192/20 16/201/24 72/202/24 67/193/20
f 15/198/23 19/207/27 75/208/27 71/199/23
f 1/209/14 6/183/14 62/184/14 57/210/14
f 9/211/14 5/212/14 61/213/14 65/214/14
f 23/215/28 1/209/14 57/210/14 79/216/28
f 26/217/11 24/163/11 80/166/11 82/218/11
f 25/172/11 26/217/11 82/218/11 81/173/11
f 4/219/14 9/211/14 65/214/14 60/220/14
f 34/221/29 23/222/28 79/223/28 90/224/29
f 36/225/30 21/226/11 77/227/11 92/228/30
f 39/229/31 36/225/30 92/228/30 95/230/31
f 38/231/22 39/229/31 95/230/31 94/232/22
f 37/233/32 38/231/22 94/232/22 93/234/32
f 35/235/33 37/233/32 93/234/32 91/236/33
f 27/237/34 35/235/33 91/236/33 83/238/34
f 30/239/35 27/237/34 83/238/34 86/240/35
f 29/241/25 30/239/35 86/240/35 85/242/25
f 28/243/36 29/241/25 85/242/25 84/244/36
f 41/245/37 31/246/38 87/247/38 97/248/37
f 44/249/39 41/245/37 97/248/37 100/250/39
f 43/251/19 44/249/39 100/250/39 99/252/19
f 42/253/40 43/251/19 99/252/19 98/254/40
f 40/255/41 42/253/40 98/254/40 96/256/41
f 21/226/11 40/255/41 96/256/41 77/227/11
f 22/180/15 28/243/36 84/244/36 78/181/15
f 33/257/16 34/221/29 90/224/29 89/258/16
f 32/259/42 33/257/16 89/258/16 88/260/42
f 31/246/38 32/259/42 88/260/42 87/247/38
