# Blender v2.83.14 OBJ File: 'icons.blend'
# www.blender.org
mtllib storage.mtl
o Cube
v 2.500000 0.100000 -0.500000
v 2.500000 0.100000 0.500000
v -2.500000 0.100000 -0.500000
v -2.500000 0.100000 0.500000
v 0.000000 0.100000 0.500000
v 0.000000 0.100000 -0.500000
v -1.500000 0.100000 0.500000
v -2.000000 0.100000 0.500000
v -2.000000 0.100000 -0.500000
v -1.500000 0.100000 -0.500000
v 2.500000 0.100000 -0.750000
v 2.500000 0.100000 -1.750000
v -2.000000 0.100000 0.250000
v -2.000000 0.100000 -0.250000
v -1.500000 0.100000 -0.250000
v -1.500000 0.100000 0.250000
v -2.500000 0.100000 -1.750000
v -2.500000 0.100000 -0.750000
v 0.000000 0.100000 -0.750000
v 0.000000 0.100000 -1.750000
v -1.500000 0.100000 -0.750000
v -2.000000 0.100000 -0.750000
v -2.000000 0.100000 -1.750000
v -1.500000 0.100000 -1.750000
v -2.000000 0.100000 -1.000000
v -2.000000 0.100000 -1.500000
v -1.500000 0.100000 -1.500000
v -1.500000 0.100000 -1.000000
v 2.500000 0.100000 1.750000
v 2.500000 0.100000 0.750000
v -2.500000 0.100000 0.750000
v -2.500000 0.100000 1.750000
v 0.000000 0.100000 1.750000
v 0.000000 0.100000 0.750000
v -1.500000 0.100000 1.750000
v -2.000000 0.100000 1.750000
v -2.000000 0.100000 0.750000
v -1.500000 0.100000 0.750000
v -2.000000 0.100000 1.500000
v -2.000000 0.100000 1.000000
v -1.500000 0.100000 1.000000
v -1.500000 0.100000 1.500000
v -2.000000 -0.100000 0.500000
v -2.500000 -0.100000 0.500000
v 2.500000 -0.100000 -0.500000
v 2.500000 -0.100000 0.500000
v -2.500000 -0.100000 -0.500000
v 0.000000 -0.100000 -0.500000
v 0.000000 -0.100000 0.500000
v -1.500000 -0.100000 -0.250000
v -2.000000 -0.100000 -0.750000
v -2.500000 -0.100000 -0.750000
v -1.500000 -0.100000 0.500000
v -2.000000 -0.100000 -0.500000
v -1.500000 -0.100000 -0.500000
v -2.000000 -0.100000 -0.250000
v 2.500000 -0.100000 -1.750000
v 2.500000 -0.100000 -0.750000
v -1.500000 -0.100000 0.250000
v -2.000000 -0.100000 0.250000
v -2.500000 -0.100000 -1.750000
v 0.000000 -0.100000 -1.750000
v 0.000000 -0.100000 -0.750000
v -1.500000 -0.100000 -1.500000
v -1.500000 -0.100000 -0.750000
v -2.000000 -0.100000 -1.750000
v -1.500000 -0.100000 -1.750000
v -2.000000 -0.100000 -1.500000
v -1.500000 -0.100000 -1.000000
v -2.000000 -0.100000 -1.000000
v -2.000000 -0.100000 1.750000
v -2.500000 -0.100000 1.750000
v 2.500000 -0.100000 0.750000
v 2.500000 -0.100000 1.750000
v -2.500000 -0.100000 0.750000
v 0.000000 -0.100000 0.750000
v 0.000000 -0.100000 1.750000
v -1.500000 -0.100000 1.000000
v -1.500000 -0.100000 1.750000
v -2.000000 -0.100000 0.750000
v -1.500000 -0.100000 0.750000
v -2.000000 -0.100000 1.000000
v -1.500000 -0.100000 1.500000
v -2.000000 -0.100000 1.500000
vt 0.825000 0.687500
vt 0.825000 0.750000
vt 0.750000 0.750000
vt 0.625000 0.500000
vt 0.750000 0.500000
vt 0.625000 0.750000
vt 0.850000 0.687500
vt 0.850000 0.562500
vt 0.875000 0.500000
vt 0.875000 0.750000
vt 0.850000 0.687500
vt 0.850000 0.562500
vt 0.875000 0.500000
vt 0.875000 0.750000
vt 0.850000 0.500000
vt 0.825000 0.687500
vt 0.825000 0.750000
vt 0.750000 0.750000
vt 0.850000 0.750000
vt 0.825000 0.500000
vt 0.825000 0.562500
vt 0.750000 0.500000
vt 0.825000 0.500000
vt 0.825000 0.562500
vt 0.850000 0.500000
vt 0.625000 0.500000
vt 0.625000 0.750000
vt 0.850000 0.750000
vt 0.850000 0.687500
vt 0.850000 0.562500
vt 0.875000 0.500000
vt 0.875000 0.750000
vt 0.850000 0.500000
vt 0.825000 0.687500
vt 0.825000 0.750000
vt 0.750000 0.750000
vt 0.850000 0.750000
vt 0.750000 0.500000
vt 0.825000 0.500000
vt 0.825000 0.562500
vt 0.625000 0.500000
vt 0.625000 0.750000
vt 0.825000 0.687500
vt 0.750000 0.750000
vt 0.825000 0.750000
vt 0.625000 0.500000
vt 0.625000 0.750000
vt 0.750000 0.500000
vt 0.850000 0.687500
vt 0.875000 0.750000
vt 0.875000 0.500000
vt 0.850000 0.562500
vt 0.850000 0.687500
vt 0.875000 0.750000
vt 0.875000 0.500000
vt 0.850000 0.562500
vt 0.850000 0.500000
vt 0.825000 0.687500
vt 0.750000 0.750000
vt 0.825000 0.750000
vt 0.850000 0.750000
vt 0.825000 0.562500
vt 0.825000 0.500000
vt 0.750000 0.500000
vt 0.825000 0.562500
vt 0.825000 0.500000
vt 0.850000 0.500000
vt 0.625000 0.500000
vt 0.625000 0.750000
vt 0.850000 0.750000
vt 0.850000 0.687500
vt 0.875000 0.750000
vt 0.875000 0.500000
vt 0.850000 0.562500
vt 0.850000 0.500000
vt 0.825000 0.687500
vt 0.750000 0.750000
vt 0.825000 0.750000
vt 0.850000 0.750000
vt 0.750000 0.500000
vt 0.825000 0.562500
vt 0.825000 0.500000
vt 0.625000 0.500000
vt 0.625000 0.750000
vn 0.0000 1.0000 0.0000
vn 0.0000 -1.0000 0.0000
vn -1.0000 0.0000 0.0000
vn 0.0000 0.0000 -1.0000
vn 0.0000 0.0000 1.0000
vn 1.0000 0.0000 0.0000
usemtl Material
s off
f 16/1/1 7/2/1 5/3/1
f 1/4/1 6/5/1 5/3/1 2/6/1
f 13/7/1 14/8/1 3/9/1 4/10/1
f 25/11/1 26/12/1 17/13/1 18/14/1
f 26/12/1 23/15/1 17/13/1
f 28/16/1 21/17/1 19/18/1
f 18/14/1 22/19/1 25/11/1
f 6/5/1 10/20/1 15/21/1
f 20/22/1 24/23/1 27/24/1
f 14/8/1 9/25/1 3/9/1
f 12/26/1 20/22/1 19/18/1 11/27/1
f 4/10/1 8/28/1 13/7/1
f 15/21/1 16/1/1 5/3/1 6/5/1
f 15/21/1 10/20/1 9/25/1 14/8/1
f 7/2/1 16/1/1 13/7/1 8/28/1
f 27/24/1 28/16/1 19/18/1 20/22/1
f 27/24/1 24/23/1 23/15/1 26/12/1
f 21/17/1 28/16/1 25/11/1 22/19/1
f 39/29/1 40/30/1 31/31/1 32/32/1
f 40/30/1 37/33/1 31/31/1
f 42/34/1 35/35/1 33/36/1
f 32/32/1 36/37/1 39/29/1
f 34/38/1 38/39/1 41/40/1
f 30/41/1 34/38/1 33/36/1 29/42/1
f 41/40/1 42/34/1 33/36/1 34/38/1
f 41/40/1 38/39/1 37/33/1 40/30/1
f 35/35/1 42/34/1 39/29/1 36/37/1
f 59/43/2 49/44/2 53/45/2
f 45/46/2 46/47/2 49/44/2 48/48/2
f 60/49/2 44/50/2 47/51/2 56/52/2
f 70/53/2 52/54/2 61/55/2 68/56/2
f 68/56/2 61/55/2 66/57/2
f 69/58/2 63/59/2 65/60/2
f 52/54/2 70/53/2 51/61/2
f 48/48/2 50/62/2 55/63/2
f 62/64/2 64/65/2 67/66/2
f 56/52/2 47/51/2 54/67/2
f 57/68/2 58/69/2 63/59/2 62/64/2
f 44/50/2 60/49/2 43/70/2
f 50/62/2 48/48/2 49/44/2 59/43/2
f 50/62/2 56/52/2 54/67/2 55/63/2
f 53/45/2 43/70/2 60/49/2 59/43/2
f 64/65/2 62/64/2 63/59/2 69/58/2
f 64/65/2 68/56/2 66/57/2 67/66/2
f 65/60/2 51/61/2 70/53/2 69/58/2
f 84/71/2 72/72/2 75/73/2 82/74/2
f 82/74/2 75/73/2 80/75/2
f 83/76/2 77/77/2 79/78/2
f 72/72/2 84/71/2 71/79/2
f 76/80/2 78/81/2 81/82/2
f 73/83/2 74/84/2 77/77/2 76/80/2
f 78/81/2 76/80/2 77/77/2 83/76/2
f 78/81/2 82/74/2 80/75/2 81/82/2
f 79/78/2 71/79/2 84/71/2 83/76/2
f 16/1/3 15/21/3 50/62/3 59/43/3
f 17/13/4 23/15/4 66/57/4 61/55/4
f 15/21/5 14/8/5 56/52/5 50/62/5
f 36/37/5 32/32/5 72/72/5 71/79/5
f 23/15/4 24/23/4 67/66/4 66/57/4
f 40/30/6 39/29/6 84/71/6 82/74/6
f 30/41/6 29/42/6 74/84/6 73/83/6
f 22/19/5 18/14/5 52/54/5 51/61/5
f 39/29/4 42/34/4 83/76/4 84/71/4
f 32/32/3 31/31/3 75/73/3 72/72/3
f 5/3/5 7/2/5 53/45/5 49/44/5
f 24/23/4 20/22/4 62/64/4 67/66/4
f 42/34/3 41/40/3 78/81/3 83/76/3
f 34/38/4 30/41/4 73/83/4 76/80/4
f 7/2/5 8/28/5 43/70/5 53/45/5
f 41/40/5 40/30/5 82/74/5 78/81/5
f 29/42/5 33/36/5 77/77/5 74/84/5
f 3/9/4 9/25/4 54/67/4 47/51/4
f 26/12/6 25/11/6 70/53/6 68/56/6
f 9/25/4 10/20/4 55/63/4 54/67/4
f 25/11/4 28/16/4 69/58/4 70/53/4
f 18/14/3 17/13/3 61/55/3 52/54/3
f 28/16/3 27/24/3 64/65/3 69/58/3
f 20/22/4 12/26/4 57/68/4 62/64/4
f 33/36/5 35/35/5 79/78/5 77/77/5
f 10/20/4 6/5/4 48/48/4 55/63/4
f 27/24/5 26/12/5 68/56/5 64/65/5
f 8/28/5 4/10/5 44/50/5 43/70/5
f 11/27/5 19/18/5 63/59/5 58/69/5
f 35/35/5 36/37/5 71/79/5 79/78/5
f 12/26/6 11/27/6 58/69/6 57/68/6
f 1/4/6 2/6/6 46/47/6 45/46/6
f 31/31/4 37/33/4 80/75/4 75/73/4
f 4/10/3 3/9/3 47/51/3 44/50/3
f 37/33/4 38/39/4 81/82/4 80/75/4
f 14/8/6 13/7/6 60/49/6 56/52/6
f 6/5/4 1/4/4 45/46/4 48/48/4
f 19/18/5 21/17/5 65/60/5 63/59/5
f 13/7/4 16/1/4 59/43/4 60/49/4
f 2/6/5 5/3/5 49/44/5 46/47/5
f 21/17/5 22/19/5 51/61/5 65/60/5
f 38/39/4 34/38/4 76/80/4 81/82/4
