# Blender v2.83.14 OBJ File: 'email.blend'
# www.blender.org
mtllib email.mtl
o Cube
v -0.975461 0.000000 -0.510956
v -0.938964 0.000000 -0.457869
v -0.388194 0.000000 -0.033179
v -0.235571 0.000000 0.089583
v -0.139352 0.000000 0.159259
v -0.063040 0.000000 0.196690
v -0.965507 0.000000 -0.617128
v -0.938964 0.000000 -0.683486
v -0.872606 0.000000 -0.743209
v -0.773069 0.000000 -0.756480
v -0.766434 0.000000 0.763116
v -0.859335 0.000000 0.734193
v -0.909103 0.000000 0.687743
v -0.372524 0.000000 0.183004
v -0.274782 0.000000 0.255478
v -0.148702 0.000000 0.331789
v -0.063040 0.000000 0.358333
v -0.952236 0.000000 0.527545
v -0.487731 0.000000 0.069676
v -0.972695 0.000000 -0.329439
v -0.773069 0.279200 -0.756480
v -0.872606 0.279200 -0.743209
v -0.938964 0.279200 -0.683486
v -0.965507 0.279200 -0.617128
v -0.975461 0.279200 -0.510956
v -0.938964 0.279200 -0.457869
v -0.388194 0.279200 -0.033179
v -0.235571 0.279200 0.089583
v -0.139352 0.279200 0.159259
v -0.063040 0.279200 0.196690
v -0.766434 0.279200 0.763116
v -0.859335 0.279200 0.734193
v -0.909103 0.279200 0.687743
v -0.372524 0.279200 0.183004
v -0.274782 0.279200 0.255478
v -0.148702 0.279200 0.331789
v -0.063040 0.279200 0.358333
v -0.487731 0.279200 0.069676
v -0.972695 0.279200 -0.329439
v -0.952236 0.279200 0.527545
v 0.000000 0.000000 0.202392
v 0.000000 0.279200 -0.759798
v 0.975461 0.000000 -0.510956
v 0.938964 0.000000 -0.457869
v 0.388194 0.000000 -0.033179
v 0.235571 0.000000 0.089583
v 0.139352 0.000000 0.159259
v 0.063040 0.000000 0.196690
v 0.965507 0.000000 -0.617128
v 0.938964 0.000000 -0.683486
v 0.872606 0.000000 -0.743209
v 0.773069 0.000000 -0.756480
v 0.766434 0.000000 0.763116
v 0.859335 0.000000 0.734193
v 0.909103 0.000000 0.687743
v 0.372524 0.000000 0.183004
v 0.274782 0.000000 0.255478
v 0.148702 0.000000 0.331789
v 0.063040 0.000000 0.358333
v 0.000000 0.000000 0.358333
v 0.952236 0.000000 0.527545
v 0.487731 0.000000 0.069676
v 0.972695 0.000000 -0.329439
v 0.773069 0.279200 -0.756480
v 0.872606 0.279200 -0.743209
v 0.938964 0.279200 -0.683486
v 0.965507 0.279200 -0.617128
v 0.000000 0.000000 -0.759798
v 0.975461 0.279200 -0.510956
v 0.938964 0.279200 -0.457869
v 0.388194 0.279200 -0.033179
v 0.235571 0.279200 0.089583
v 0.139352 0.279200 0.159259
v 0.063040 0.279200 0.196690
v 0.000000 0.279200 0.202392
v 0.766434 0.279200 0.763116
v 0.859335 0.279200 0.734193
v 0.909103 0.279200 0.687743
v 0.372524 0.279200 0.183004
v 0.274782 0.279200 0.255478
v 0.148702 0.279200 0.331789
v 0.063040 0.279200 0.358333
v 0.000000 0.279200 0.358333
v 0.487731 0.279200 0.069676
v 0.972695 0.279200 -0.329439
v 0.952236 0.279200 0.527545
v 0.000000 0.000000 0.756480
v 0.000000 0.279200 0.756480
v -0.872606 0.000000 -0.743209
v -0.773069 0.000000 -0.756480
v -0.938964 0.000000 -0.683486
v -0.965507 0.000000 -0.617128
v -0.773069 0.279200 -0.756480
v 0.000000 0.279200 -0.759798
v -0.975461 0.000000 -0.510956
v -0.938964 0.000000 -0.457869
v -0.388194 0.000000 -0.033179
v -0.235571 0.000000 0.089583
v -0.139352 0.000000 0.159259
v -0.063040 0.000000 0.196690
v 0.000000 0.000000 0.202392
v 0.000000 0.000000 0.756480
v -0.766434 0.000000 0.763116
v -0.859335 0.000000 0.734193
v -0.909103 0.000000 0.687743
v -0.909103 0.000000 0.687743
v -0.372524 0.000000 0.183004
v -0.274782 0.000000 0.255478
v -0.148702 0.000000 0.331789
v -0.063040 0.000000 0.358333
v 0.000000 0.000000 0.358333
v -0.952236 0.000000 0.527545
v -0.952236 0.000000 0.527545
v -0.487731 0.000000 0.069676
v -0.487731 0.000000 0.069676
v -0.972695 0.000000 -0.329439
v -0.972695 0.000000 -0.329439
v -0.872606 0.279200 -0.743209
v -0.938964 0.279200 -0.683486
v -0.965507 0.279200 -0.617128
v 0.000000 0.000000 -0.759798
v -0.975461 0.279200 -0.510956
v -0.938964 0.279200 -0.457869
v -0.388194 0.279200 -0.033179
v -0.235571 0.279200 0.089583
v -0.139352 0.279200 0.159259
v -0.063040 0.279200 0.196690
v 0.000000 0.279200 0.202392
v 0.000000 0.279200 0.756480
v -0.766434 0.279200 0.763116
v -0.859335 0.279200 0.734193
v -0.909103 0.279200 0.687743
v -0.909103 0.279200 0.687743
v -0.372524 0.279200 0.183004
v -0.274782 0.279200 0.255478
v -0.148702 0.279200 0.331789
v -0.063040 0.279200 0.358333
v 0.000000 0.279200 0.358333
v -0.487731 0.279200 0.069676
v -0.487731 0.279200 0.069676
v -0.972695 0.279200 -0.329439
v -0.972695 0.279200 -0.329439
v -0.952236 0.279200 0.527545
v -0.952236 0.279200 0.527545
v 0.872606 0.000000 -0.743209
v 0.773069 0.000000 -0.756480
v 0.938964 0.000000 -0.683486
v 0.965507 0.000000 -0.617128
v 0.773069 0.279200 -0.756480
v 0.975461 0.000000 -0.510956
v 0.938964 0.000000 -0.457869
v 0.388194 0.000000 -0.033179
v 0.235571 0.000000 0.089583
v 0.139352 0.000000 0.159259
v 0.063040 0.000000 0.196690
v 0.766434 0.000000 0.763116
v 0.859335 0.000000 0.734193
v 0.909103 0.000000 0.687743
v 0.909103 0.000000 0.687743
v 0.372524 0.000000 0.183004
v 0.274782 0.000000 0.255478
v 0.148702 0.000000 0.331789
v 0.063040 0.000000 0.358333
v 0.952236 0.000000 0.527545
v 0.952236 0.000000 0.527545
v 0.487731 0.000000 0.069676
v 0.487731 0.000000 0.069676
v 0.972695 0.000000 -0.329439
v 0.972695 0.000000 -0.329439
v 0.872606 0.279200 -0.743209
v 0.938964 0.279200 -0.683486
v 0.965507 0.279200 -0.617128
v 0.975461 0.279200 -0.510956
v 0.938964 0.279200 -0.457869
v 0.388194 0.279200 -0.033179
v 0.235571 0.279200 0.089583
v 0.139352 0.279200 0.159259
v 0.063040 0.279200 0.196690
v 0.766434 0.279200 0.763116
v 0.859335 0.279200 0.734193
v 0.909103 0.279200 0.687743
v 0.909103 0.279200 0.687743
v 0.372524 0.279200 0.183004
v 0.274782 0.279200 0.255478
v 0.148702 0.279200 0.331789
v 0.063040 0.279200 0.358333
v 0.487731 0.279200 0.069676
v 0.487731 0.279200 0.069676
v 0.972695 0.279200 -0.329439
v 0.972695 0.279200 -0.329439
v 0.952236 0.279200 0.527545
v 0.952236 0.279200 0.527545
vt 0.000000 0.000000
vt 0.000000 0.000000
vt 0.000000 0.000000
vt 0.000000 0.000000
vt 0.000000 0.000000
vt 0.000000 0.000000
vt 0.000000 0.000000
vt 0.000000 0.000000
vt 0.000000 0.000000
vt 0.000000 0.000000
vt 0.000000 0.000000
vt 0.000000 0.000000
vt 0.000000 0.000000
vt 0.000000 0.000000
vt 0.000000 0.000000
vt 0.000000 0.000000
vt 0.000000 0.000000
vt 0.000000 0.000000
vt 0.000000 0.000000
vt 0.000000 0.000000
vt 0.000000 0.000000
vt 0.000000 0.000000
vt 0.000000 0.000000
vt 0.000000 0.000000
vt 0.000000 0.000000
vt 0.000000 0.000000
vt 0.000000 0.000000
vt 0.000000 0.000000
vt 0.000000 0.000000
vt 0.000000 0.000000
vt 0.000000 0.000000
vt 0.000000 0.000000
vt 0.000000 0.000000
vt 0.000000 0.000000
vt 0.000000 0.000000
vt 0.000000 0.000000
vt 0.000000 0.000000
vt 0.000000 0.000000
vt 0.000000 0.000000
vt 0.000000 0.000000
vt 0.000000 0.000000
vt 0.000000 0.000000
vt 0.000000 0.000000
vt 0.000000 0.000000
vt 0.000000 0.000000
vt 0.000000 0.000000
vt 0.000000 0.000000
vt 0.000000 0.000000
vt 0.000000 0.000000
vt 0.000000 0.000000
vt 0.000000 0.000000
vt 0.000000 0.000000
vt 0.000000 0.000000
vt 0.000000 0.000000
vt 0.000000 0.000000
vt 0.000000 0.000000
vt 0.000000 0.000000
vt 0.000000 0.000000
vt 0.000000 0.000000
vt 0.000000 0.000000
vt 0.000000 0.000000
vt 0.000000 0.000000
vt 0.000000 0.000000
vt 0.000000 0.000000
vt 0.000000 0.000000
vt 0.000000 0.000000
vt 0.000000 0.000000
vt 0.000000 0.000000
vt 0.000000 0.000000
vt 0.000000 0.000000
vt 0.000000 0.000000
vt 0.000000 0.000000
vt 0.000000 0.000000
vt 0.000000 0.000000
vt 0.000000 0.000000
vt 0.000000 0.000000
vt 0.000000 0.000000
vt 0.000000 0.000000
vt 0.000000 0.000000
vt 0.000000 0.000000
vt 0.000000 0.000000
vt 0.000000 0.000000
vt 0.000000 0.000000
vt 0.000000 0.000000
vt 0.000000 0.000000
vt 0.000000 0.000000
vt 0.000000 0.000000
vt 0.000000 0.000000
vt 0.000000 0.000000
vt 0.000000 0.000000
vt 0.000000 0.000000
vt 0.000000 0.000000
vt 0.000000 0.000000
vt 0.000000 0.000000
vt 0.000000 0.000000
vt 0.000000 0.000000
vt 0.000000 0.000000
vt 0.000000 0.000000
vt 0.000000 0.000000
vt 0.000000 0.000000
vt 0.000000 0.000000
vt 0.000000 0.000000
vt 0.000000 0.000000
vt 0.000000 0.000000
vt 0.000000 0.000000
vt 0.000000 0.000000
vt 0.000000 0.000000
vt 0.000000 0.000000
vt 0.000000 0.000000
vt 0.000000 0.000000
vt 0.000000 0.000000
vt 0.000000 0.000000
vt 0.000000 0.000000
vt 0.000000 0.000000
vt 0.000000 0.000000
vt 0.000000 0.000000
vt 0.000000 0.000000
vt 0.000000 0.000000
vt 0.000000 0.000000
vt 0.000000 0.000000
vt 0.000000 0.000000
vt 0.000000 0.000000
vt 0.000000 0.000000
vt 0.000000 0.000000
vt 0.000000 0.000000
vt 0.000000 0.000000
vt 0.000000 0.000000
vt 0.000000 0.000000
vt 0.000000 0.000000
vt 0.000000 0.000000
vt 0.000000 0.000000
vt 0.000000 0.000000
vt 0.000000 0.000000
vt 0.000000 0.000000
vt 0.000000 0.000000
vt 0.000000 0.000000
vt 0.000000 0.000000
vt 0.000000 0.000000
vt 0.000000 0.000000
vt 0.000000 0.000000
vt 0.000000 0.000000
vt 0.000000 0.000000
vt 0.000000 0.000000
vt 0.000000 0.000000
vt 0.000000 0.000000
vt 0.000000 0.000000
vt 0.000000 0.000000
vt 0.000000 0.000000
vt 0.000000 0.000000
vt 0.000000 0.000000
vt 0.000000 0.000000
vt 0.000000 0.000000
vt 0.000000 0.000000
vt 0.000000 0.000000
vt 0.000000 0.000000
vt 0.000000 0.000000
vt 0.000000 0.000000
vt 0.000000 0.000000
vt 0.000000 0.000000
vt 0.000000 0.000000
vt 0.000000 0.000000
vt 0.000000 0.000000
vt 0.000000 0.000000
vt 0.000000 0.000000
vt 0.000000 0.000000
vt 0.000000 0.000000
vt 0.000000 0.000000
vt 0.000000 0.000000
vt 0.000000 0.000000
vt 0.000000 0.000000
vt 0.000000 0.000000
vt 0.000000 0.000000
vt 0.000000 0.000000
vt 0.000000 0.000000
vt 0.000000 0.000000
vt 0.000000 0.000000
vt 0.000000 0.000000
vt 0.000000 0.000000
vt 0.000000 0.000000
vt 0.000000 0.000000
vt 0.000000 0.000000
vt 0.000000 0.000000
vt 0.000000 0.000000
vt 0.000000 0.000000
vt 0.000000 0.000000
vt 0.000000 0.000000
vt 0.000000 0.000000
vt 0.000000 0.000000
vt 0.000000 0.000000
vt 0.000000 0.000000
vt 0.000000 0.000000
vt 0.000000 0.000000
vn 0.0000 -1.0000 0.0000
vn 0.0000 1.0000 0.0000
vn -0.4193 0.0000 -0.9078
vn -0.8201 0.0000 -0.5722
vn -0.9720 0.0000 -0.2348
vn -0.0684 0.0000 -0.9977
vn -0.7020 0.0000 -0.7121
vn -0.9678 0.0000 0.2517
vn -0.7263 0.0000 0.6874
vn -0.6354 0.0000 0.7721
vn -0.1497 0.0000 0.9887
vn 0.0000 0.0000 1.0000
vn -0.6110 0.0000 0.7916
vn -0.5283 0.0000 0.8490
vn 0.9997 0.0000 -0.0239
vn 0.0000 0.0000 -1.0000
vn 0.1460 0.0000 -0.9893
vn 0.5024 0.0000 -0.8646
vn 0.6823 0.0000 -0.7310
vn -0.2697 0.0000 0.9629
vn 0.6851 0.0000 0.7284
vn 0.0584 0.0000 0.9983
vn -0.5573 0.0000 0.8303
vn -0.4099 0.0000 0.9121
vn 0.4193 0.0000 -0.9078
vn 0.8201 0.0000 -0.5722
vn 0.9720 0.0000 -0.2348
vn 0.0684 0.0000 -0.9977
vn 0.7020 0.0000 -0.7121
vn 0.9678 0.0000 0.2517
vn 0.7263 0.0000 0.6874
vn 0.6354 0.0000 0.7721
vn 0.1497 0.0000 0.9887
vn 0.6110 0.0000 0.7916
vn 0.5283 0.0000 0.8490
vn -0.9997 0.0000 -0.0239
vn -0.1460 0.0000 -0.9893
vn -0.5024 0.0000 -0.8646
vn -0.6823 0.0000 -0.7310
vn 0.2697 0.0000 0.9629
vn -0.6851 0.0000 0.7284
vn -0.0584 0.0000 0.9983
vn 0.5573 0.0000 0.8303
vn 0.4099 0.0000 0.9121
usemtl Material
s 1
f 141/1/1 139/2/1 143/3/1
f 26/4/2 21/5/2 24/6/2
f 112/7/2 114/8/2 116/9/2
f 128/10/2 42/11/2 30/12/2
f 118/13/3 89/14/3 91/15/4 119/16/4
f 119/16/4 91/15/4 92/17/5 120/18/5
f 93/19/6 90/20/6 89/14/3 118/13/3
f 140/21/7 115/22/7 113/23/7 144/24/7
f 122/25/8 95/26/8 96/27/9 123/28/9
f 142/29/10 117/30/10 19/31/10 38/32/10
f 137/33/11 110/34/11 111/35/12 138/36/12
f 97/37/13 98/38/13 99/39/14 126/40/14 125/41/13 124/42/13 123/28/9 96/27/9
f 40/43/15 18/44/15 20/45/15 39/46/15
f 129/47/16 102/48/16 103/49/17 130/50/17
f 130/50/17 103/49/17 104/51/18 131/52/18
f 131/52/18 104/51/18 105/53/19 132/54/19
f 126/40/14 99/39/14 100/55/20 127/56/20
f 120/18/5 92/17/5 95/26/8 122/25/8
f 133/57/21 106/58/21 107/59/22 134/60/22
f 127/56/20 100/55/20 101/61/12 75/62/12
f 134/60/22 107/59/22 108/63/23 135/64/23
f 135/64/23 108/63/23 109/65/24 136/66/24
f 94/67/16 121/68/16 90/20/6 93/19/6
f 136/66/24 109/65/24 110/34/11 137/33/11
f 35/69/1 36/70/1 31/71/1
f 31/71/1 32/72/1 33/73/1
f 88/74/1 31/71/1 36/70/1
f 88/74/1 36/70/1 37/75/1
f 34/76/1 35/69/1 31/71/1 33/73/1
f 13/77/2 12/78/2 11/79/2
f 11/79/2 87/80/2 16/81/2
f 16/81/2 87/80/2 17/82/2
f 16/81/2 15/83/2 11/79/2
f 17/82/2 87/80/2 60/84/2
f 3/85/1 2/86/1 10/87/1 68/88/1
f 6/89/1 68/88/1 41/90/1
f 9/91/1 10/87/1 8/92/1
f 21/5/2 26/4/2 27/93/2 42/11/2
f 7/94/1 10/87/1 2/86/1
f 7/94/1 8/92/1 10/87/1
f 2/86/1 1/95/1 7/94/1
f 68/88/1 6/89/1 5/96/1
f 3/85/1 68/88/1 4/97/1
f 21/5/2 22/98/2 23/99/2
f 83/100/1 88/74/1 37/75/1
f 25/101/2 26/4/2 24/6/2
f 27/93/2 28/102/2 42/11/2
f 42/11/2 29/103/2 30/12/2
f 23/99/2 24/6/2 21/5/2
f 14/104/2 13/77/2 11/79/2 15/83/2
f 42/11/2 28/102/2 29/103/2
f 4/97/1 68/88/1 5/96/1
f 189/105/1 191/106/1 187/107/1
f 70/108/2 67/109/2 64/110/2
f 164/111/2 168/112/2 166/113/2
f 128/10/2 74/114/2 42/11/2
f 170/115/25 171/116/26 147/117/26 145/118/25
f 171/116/26 172/119/27 148/120/27 147/117/26
f 149/121/28 170/115/25 145/118/25 146/122/28
f 188/123/29 192/124/29 165/125/29 167/126/29
f 173/127/30 174/128/31 151/129/31 150/130/30
f 190/131/32 84/132/32 62/133/32 169/134/32
f 186/135/33 138/36/12 111/35/12 163/136/33
f 152/137/34 151/129/31 174/128/31 175/138/34 176/139/34 177/140/35 154/141/35 153/142/34
f 86/143/36 85/144/36 63/145/36 61/146/36
f 129/47/16 179/147/37 156/148/37 102/48/16
f 179/147/37 180/149/38 157/150/38 156/148/37
f 180/149/38 181/151/39 158/152/39 157/150/38
f 177/140/35 178/153/40 155/154/40 154/141/35
f 172/119/27 173/127/30 150/130/30 148/120/27
f 182/155/41 183/156/42 160/157/42 159/158/41
f 178/153/40 75/62/12 101/61/12 155/154/40
f 183/156/42 184/159/43 161/160/43 160/157/42
f 184/159/43 185/161/44 162/162/44 161/160/43
f 94/67/16 149/121/28 146/122/28 121/68/16
f 185/161/44 186/135/33 163/136/33 162/162/44
f 80/163/1 76/164/1 81/165/1
f 76/164/1 78/166/1 77/167/1
f 88/74/1 81/165/1 76/164/1
f 88/74/1 82/168/1 81/165/1
f 79/169/1 78/166/1 76/164/1 80/163/1
f 55/170/2 53/171/2 54/172/2
f 53/171/2 58/173/2 87/80/2
f 58/173/2 59/174/2 87/80/2
f 58/173/2 53/171/2 57/175/2
f 59/174/2 60/84/2 87/80/2
f 45/176/1 68/88/1 52/177/1 44/178/1
f 48/179/1 41/90/1 68/88/1
f 51/180/1 50/181/1 52/177/1
f 64/110/2 42/11/2 71/182/2 70/108/2
f 49/183/1 44/178/1 52/177/1
f 49/183/1 52/177/1 50/181/1
f 44/178/1 49/183/1 43/184/1
f 68/88/1 47/185/1 48/179/1
f 45/176/1 46/186/1 68/88/1
f 64/110/2 66/187/2 65/188/2
f 83/100/1 82/168/1 88/74/1
f 69/189/2 67/109/2 70/108/2
f 71/182/2 42/11/2 72/190/2
f 42/11/2 74/114/2 73/191/2
f 66/187/2 64/110/2 67/109/2
f 56/192/2 57/175/2 53/171/2 55/170/2
f 42/11/2 73/191/2 72/190/2
f 46/186/1 47/185/1 68/88/1
