# Blender v2.83.14 OBJ File: 'icons.blend'
# www.blender.org
mtllib laptop cloud.mtl
o Plane.006_Plane.008
v -1.680000 0.100000 0.718800
v -1.680000 0.100000 -1.441200
v -1.390345 0.100000 -1.248096
v -1.390345 0.100000 0.500327
v -1.680000 0.100000 0.838800
v -0.960000 0.100000 0.838800
v -1.390345 0.100000 0.838800
v -2.099144 0.100000 1.874443
v -1.379143 0.100000 1.874443
v -1.809488 0.100000 1.874443
v -2.256000 0.100000 1.594800
v -2.250000 0.099997 1.522801
v -1.530000 0.100000 1.522801
v -1.536000 0.100000 1.594800
v -1.960345 0.100000 1.522801
v -1.966345 0.100000 1.594800
v -1.495948 0.100000 1.793785
v -1.545260 0.100000 1.719816
v -1.975605 0.100000 1.719816
v -1.926293 0.100000 1.793785
v -2.215949 0.099997 1.793785
v -2.265261 0.100000 1.719816
v -1.910426 0.100000 1.115311
v -2.100426 0.100000 1.343311
v -1.810771 0.099997 1.343311
v -1.620771 0.100000 1.115311
v -1.190426 0.100000 1.115311
v -1.380426 0.100000 1.343311
v 1.680000 0.100000 0.718800
v 1.680000 0.100000 -1.441200
v -0.000000 0.100000 0.718800
v 1.390345 0.100000 -1.248096
v -0.000000 0.100000 0.500327
v 1.390345 0.100000 0.500327
v 1.680000 0.100000 0.838800
v -0.000000 0.100000 0.838800
v 0.960000 0.100000 0.838800
v 1.390345 0.100000 0.838800
v 2.099143 0.100000 1.874443
v -0.000000 0.100000 1.874443
v 1.379143 0.100000 1.874443
v 1.809488 0.100000 1.874443
v 2.256000 0.100000 1.594800
v 2.250000 0.099997 1.522801
v -0.000000 0.100000 1.522801
v -0.000000 0.100000 1.594800
v 1.530000 0.100000 1.522801
v 1.536000 0.100000 1.594800
v 1.960345 0.100000 1.522801
v 1.966345 0.100000 1.594800
v -0.000000 0.100000 1.719816
v -0.000000 0.100000 1.793785
v 1.495948 0.100000 1.793785
v 1.545260 0.100000 1.719816
v 1.975605 0.100000 1.719816
v 1.926293 0.100000 1.793785
v 2.215948 0.100000 1.793785
v 2.265260 0.100000 1.719816
v 1.910426 0.100000 1.115311
v 2.100425 0.100000 1.343311
v 1.810771 0.100000 1.343311
v 1.620771 0.100000 1.115311
v 1.190426 0.100000 1.115311
v 1.380426 0.100000 1.343311
v -0.000000 0.100000 1.343311
v -0.000000 0.100000 1.115311
v -0.000000 0.100000 -1.441200
v -0.000000 0.100000 -1.248096
v 1.451241 0.100000 -1.899361
v 1.365823 0.100000 -1.888115
v 1.951241 0.100000 -0.033335
v 2.158347 0.100000 -0.192253
v 2.317266 0.100000 -0.399360
v 2.417167 0.100000 -0.640541
v 2.451241 0.100000 -0.899360
v 2.417167 0.100000 -1.158179
v 2.317267 0.100000 -1.399360
v 2.158348 0.100000 -1.606467
v 1.951242 0.100000 -1.765386
v 1.710061 0.100000 -1.865286
v 0.153300 0.100000 -2.774471
v -0.178596 0.100000 -2.730776
v -0.487875 0.099997 -2.602668
v -0.753458 0.100000 -2.398879
v -0.963226 0.100000 -2.108314
v 1.263847 0.100000 -2.133296
v 1.060058 0.100000 -2.398879
v 0.794475 0.100000 -2.602668
v 0.485197 0.100000 -2.730775
v -1.267281 0.100000 -2.122575
v -1.565356 0.100000 -2.083333
v -1.843118 0.099997 -1.968280
v -2.081638 0.100000 -1.785258
v -2.264660 0.100000 -1.546738
v -2.379713 0.100000 -1.268976
v -2.418955 0.100000 -0.970901
v -2.379713 0.100000 -0.672825
v -2.264660 0.100000 -0.395063
v -2.081638 0.100000 -0.156544
v -1.843118 0.100000 0.026479
v -1.720432 0.100000 0.077297
v 1.713130 0.100000 0.065293
v -1.720432 0.100000 -1.509188
v 1.713131 0.100000 -1.509188
v -1.680000 -0.100000 0.718800
v -1.680000 -0.100000 -1.441200
v -1.390345 -0.100000 -1.248096
v -1.390345 -0.100000 0.500327
v -1.680000 -0.100000 0.838800
v -0.960000 -0.100000 0.838800
v -1.390345 -0.100000 0.838800
v -2.099144 -0.100000 1.874443
v -1.379143 -0.100000 1.874443
v -1.809488 -0.100000 1.874443
v -2.256000 -0.100000 1.594800
v -2.250000 -0.099997 1.522801
v -1.530000 -0.100000 1.522801
v -1.536000 -0.100000 1.594800
v -1.960345 -0.100000 1.522801
v -1.966345 -0.100000 1.594800
v -1.495948 -0.100000 1.793785
v -1.545260 -0.100000 1.719816
v -1.975605 -0.100000 1.719816
v -1.926293 -0.100000 1.793785
v -2.215949 -0.099997 1.793785
v -2.265261 -0.100000 1.719816
v -1.910426 -0.100000 1.115311
v -2.100426 -0.100000 1.343311
v -1.810771 -0.099997 1.343311
v -1.620771 -0.100000 1.115311
v -1.190426 -0.100000 1.115311
v -1.380426 -0.100000 1.343311
v 1.680000 -0.100000 0.718800
v 1.680000 -0.100000 -1.441200
v -0.000000 -0.100000 0.718800
v 1.390345 -0.100000 -1.248096
v -0.000000 -0.100000 0.500327
v 1.390345 -0.100000 0.500327
v 1.680000 -0.100000 0.838800
v -0.000000 -0.100000 0.838800
v 0.960000 -0.100000 0.838800
v 1.390345 -0.100000 0.838800
v 2.099143 -0.100000 1.874443
v -0.000000 -0.100000 1.874443
v 1.379143 -0.100000 1.874443
v 1.809488 -0.100000 1.874443
v 2.256000 -0.100000 1.594800
v 2.250000 -0.099997 1.522801
v -0.000000 -0.100000 1.522801
v -0.000000 -0.100000 1.594800
v 1.530000 -0.100000 1.522801
v 1.536000 -0.100000 1.594800
v 1.960345 -0.100000 1.522801
v 1.966345 -0.100000 1.594800
v -0.000000 -0.100000 1.719816
v -0.000000 -0.100000 1.793785
v 1.495948 -0.100000 1.793785
v 1.545260 -0.100000 1.719816
v 1.975605 -0.100000 1.719816
v 1.926293 -0.100000 1.793785
v 2.215948 -0.100000 1.793785
v 2.265260 -0.100000 1.719816
v 1.910426 -0.100000 1.115311
v 2.100425 -0.100000 1.343311
v 1.810771 -0.100000 1.343311
v 1.620771 -0.100000 1.115311
v 1.190426 -0.100000 1.115311
v 1.380426 -0.100000 1.343311
v -0.000000 -0.100000 1.343311
v -0.000000 -0.100000 1.115311
v -0.000000 -0.100000 -1.441200
v -0.000000 -0.100000 -1.248096
v 1.451241 -0.100000 -1.899361
v 1.365823 -0.100000 -1.888115
v 1.951241 -0.100000 -0.033335
v 2.158347 -0.100000 -0.192253
v 2.317266 -0.100000 -0.399360
v 2.417167 -0.100000 -0.640541
v 2.451241 -0.100000 -0.899360
v 2.417167 -0.100000 -1.158179
v 2.317267 -0.100000 -1.399360
v 2.158348 -0.100000 -1.606467
v 1.951242 -0.100000 -1.765386
v 1.710061 -0.100000 -1.865286
v 0.153300 -0.100000 -2.774471
v -0.178596 -0.100000 -2.730776
v -0.487875 -0.099997 -2.602668
v -0.753458 -0.100000 -2.398879
v -0.963226 -0.100000 -2.108314
v 1.263847 -0.100000 -2.133296
v 1.060058 -0.100000 -2.398879
v 0.794475 -0.100000 -2.602668
v 0.485197 -0.100000 -2.730775
v -1.267281 -0.100000 -2.122575
v -1.565356 -0.100000 -2.083333
v -1.843118 -0.099997 -1.968280
v -2.081638 -0.100000 -1.785258
v -2.264660 -0.100000 -1.546738
v -2.379713 -0.100000 -1.268976
v -2.418955 -0.100000 -0.970901
v -2.379713 -0.100000 -0.672825
v -2.264660 -0.100000 -0.395063
v -2.081638 -0.100000 -0.156544
v -1.843118 -0.100000 0.026479
v -1.720432 -0.100000 0.077297
v 1.713130 -0.100000 0.065293
v -1.720432 -0.100000 -1.509188
v 1.713131 -0.100000 -1.509188
vt 0.100575 0.402299
vt 0.100575 0.402299
vt 0.000000 0.000000
vt 0.250000 1.000000
vt 0.000000 0.000000
vt 0.000000 0.000000
vt 0.000000 0.000000
vt 0.000000 0.000000
vt 0.000000 0.000000
vt 0.000000 0.000000
vt 0.000000 0.000000
vt 0.000000 0.000000
vt 0.000000 0.000000
vt 0.000000 0.000000
vt 0.000000 0.000000
vt 0.000000 0.000000
vt 0.000000 0.000000
vt 0.000000 0.000000
vt 0.000000 0.000000
vt 0.000000 0.000000
vt 0.000000 0.000000
vt 0.000000 0.000000
vt 0.000000 0.000000
vt 0.000000 0.000000
vt 0.000000 0.000000
vt 0.000000 0.000000
vt 0.000000 0.000000
vt 0.000000 0.000000
vt 0.000000 0.000000
vt 0.000000 0.000000
vt 0.000000 0.000000
vt 0.000000 0.000000
vt 0.000000 0.000000
vt 0.000000 0.000000
vt 0.000000 0.000000
vt 0.000000 0.000000
vt 0.000000 0.000000
vt 0.020345 0.081381
vt 0.100575 0.402299
vt 0.000000 0.000000
vt 0.000000 0.000000
vt 0.101145 0.202290
vt 0.000000 0.000000
vt 0.000000 0.000000
vt 0.000000 0.000000
vt 0.000000 0.000000
vt 0.000000 0.000000
vt 0.000000 0.000000
vt 0.000000 0.000000
vt 0.000000 0.000000
vt 0.000000 0.000000
vt 0.000000 0.000000
vt 0.000000 0.000000
vt 0.000000 0.000000
vt 0.000000 0.000000
vt 0.000000 0.000000
vt 0.000000 0.000000
vt 0.000000 0.000000
vt 0.000000 0.000000
vt 0.000000 0.000000
vt 0.000000 0.000000
vt 0.000000 0.000000
vt 0.000000 0.000000
vt 0.000000 0.000000
vt 0.000000 0.000000
vt 0.000000 0.000000
vt 0.000000 0.000000
vt 0.020345 0.081381
vt 0.000000 0.000000
vt 0.000000 0.000000
vt 0.000000 0.000000
vt 0.000000 0.000000
vt 0.000000 0.000000
vt 0.000000 0.000000
vt 0.000000 0.000000
vt 0.000000 0.000000
vt 0.000000 0.000000
vt 0.000000 0.000000
vt 0.000000 0.000000
vt 0.000000 0.000000
vt 0.000000 0.000000
vt 0.000000 0.000000
vt 0.000000 0.000000
vt 0.000000 0.000000
vt 0.000000 0.000000
vt 0.000000 0.000000
vt 0.000000 0.000000
vt 0.000000 0.000000
vt 0.000000 0.000000
vt 0.000000 0.000000
vt 0.000000 0.000000
vt 0.000000 0.000000
vt 0.000000 0.000000
vt 0.000000 0.000000
vt 0.000000 0.000000
vt 0.000000 0.000000
vt 0.000000 0.000000
vt 0.000000 0.000000
vt 0.000000 0.000000
vt 0.000000 0.000000
vt 0.000000 0.000000
vt 0.000000 0.000000
vt 0.000000 0.000000
vt 0.000000 0.000000
vt 0.100575 0.402299
vt 0.250000 1.000000
vt 0.000000 0.000000
vt 0.100575 0.402299
vt 0.000000 0.000000
vt 0.000000 0.000000
vt 0.000000 0.000000
vt 0.000000 0.000000
vt 0.000000 0.000000
vt 0.000000 0.000000
vt 0.000000 0.000000
vt 0.000000 0.000000
vt 0.000000 0.000000
vt 0.000000 0.000000
vt 0.000000 0.000000
vt 0.000000 0.000000
vt 0.000000 0.000000
vt 0.000000 0.000000
vt 0.000000 0.000000
vt 0.000000 0.000000
vt 0.000000 0.000000
vt 0.000000 0.000000
vt 0.000000 0.000000
vt 0.000000 0.000000
vt 0.000000 0.000000
vt 0.000000 0.000000
vt 0.000000 0.000000
vt 0.000000 0.000000
vt 0.000000 0.000000
vt 0.000000 0.000000
vt 0.000000 0.000000
vt 0.000000 0.000000
vt 0.000000 0.000000
vt 0.000000 0.000000
vt 0.000000 0.000000
vt 0.000000 0.000000
vt 0.000000 0.000000
vt 0.000000 0.000000
vt 0.100575 0.402299
vt 0.020345 0.081381
vt 0.000000 0.000000
vt 0.101145 0.202290
vt 0.000000 0.000000
vt 0.000000 0.000000
vt 0.000000 0.000000
vt 0.000000 0.000000
vt 0.000000 0.000000
vt 0.000000 0.000000
vt 0.000000 0.000000
vt 0.000000 0.000000
vt 0.000000 0.000000
vt 0.000000 0.000000
vt 0.000000 0.000000
vt 0.000000 0.000000
vt 0.000000 0.000000
vt 0.000000 0.000000
vt 0.000000 0.000000
vt 0.000000 0.000000
vt 0.000000 0.000000
vt 0.000000 0.000000
vt 0.000000 0.000000
vt 0.000000 0.000000
vt 0.000000 0.000000
vt 0.000000 0.000000
vt 0.000000 0.000000
vt 0.000000 0.000000
vt 0.000000 0.000000
vt 0.020345 0.081381
vt 0.000000 0.000000
vt 0.000000 0.000000
vt 0.000000 0.000000
vt 0.000000 0.000000
vt 0.000000 0.000000
vt 0.000000 0.000000
vt 0.000000 0.000000
vt 0.000000 0.000000
vt 0.000000 0.000000
vt 0.000000 0.000000
vt 0.000000 0.000000
vt 0.000000 0.000000
vt 0.000000 0.000000
vt 0.000000 0.000000
vt 0.000000 0.000000
vt 0.000000 0.000000
vt 0.000000 0.000000
vt 0.000000 0.000000
vt 0.000000 0.000000
vt 0.000000 0.000000
vt 0.000000 0.000000
vt 0.000000 0.000000
vt 0.000000 0.000000
vt 0.000000 0.000000
vt 0.000000 0.000000
vt 0.000000 0.000000
vt 0.000000 0.000000
vt 0.000000 0.000000
vt 0.000000 0.000000
vt 0.000000 0.000000
vt 0.000000 0.000000
vt 0.000000 0.000000
vt 0.000000 0.000000
vt 0.000000 0.000000
vt 0.000000 0.000000
vt 0.000000 0.000000
vn 0.0000 1.0000 0.0000
vn 0.0000 -1.0000 0.0000
vn -1.0000 0.0000 0.0000
vn 1.0000 0.0000 0.0000
vn 0.0000 0.0000 1.0000
vn 0.0000 0.0000 -1.0000
vn -0.4242 0.0000 -0.9056
vn -0.2976 0.0000 0.9547
vn -0.7682 0.0000 -0.6402
vn -0.7129 0.0000 0.7013
vn -0.9671 0.0000 0.2542
vn -0.9973 0.0000 -0.0739
vn 0.4242 0.0000 0.9056
vn 0.7682 0.0000 0.6402
vn 0.4242 0.0000 -0.9056
vn 0.2976 0.0000 0.9547
vn 0.7682 0.0000 -0.6402
vn 0.9671 0.0000 0.2542
vn 0.7129 0.0000 0.7013
vn 0.9973 0.0000 -0.0739
vn -0.7682 0.0000 0.6402
vn -0.4242 0.0000 0.9056
vn 0.7071 0.0000 0.7071
vn 0.5000 0.0000 0.8660
vn 0.8660 0.0000 0.5000
vn 0.9659 0.0000 0.2588
vn 0.9659 0.0000 -0.2588
vn 0.8660 0.0000 -0.5000
vn 0.7071 0.0000 -0.7071
vn 0.5000 0.0000 -0.8660
vn 0.2588 0.0000 -0.9659
vn -0.2588 0.0000 -0.9659
vn -0.5000 0.0000 -0.8660
vn -0.7174 0.0000 -0.6967
vn -0.8108 0.0000 -0.5853
vn 0.8657 0.0000 -0.5006
vn -0.0420 0.0000 -0.9991
vn -0.7071 0.0000 -0.7071
vn -0.8660 0.0000 -0.5000
vn -0.9659 0.0000 -0.2588
vn -0.9659 0.0000 0.2588
vn -0.8660 0.0000 0.5000
vn -0.7071 0.0000 0.7071
vn -0.5000 0.0000 0.8660
vn -0.3827 0.0000 0.9239
vn 0.0469 0.0000 -0.9989
vn -0.1305 0.0000 -0.9914
vn 0.9233 0.0000 -0.3840
vn 0.3827 0.0000 0.9239
usemtl None
s 1
f 68/1/1 32/2/1 30/3/1 67/4/1
f 25/5/1 15/6/1 13/7/1 28/8/1
f 28/8/1 13/7/1 45/9/1 65/10/1
f 11/11/1 22/12/1 19/13/1 16/14/1
f 16/14/1 19/13/1 18/15/1 14/16/1
f 21/17/1 8/18/1 10/19/1 20/20/1
f 20/20/1 10/19/1 9/21/1 17/22/1
f 17/22/1 9/21/1 40/23/1 52/24/1
f 24/25/1 12/26/1 15/6/1 25/5/1
f 20/20/1 17/22/1 18/15/1 19/13/1
f 17/22/1 52/24/1 51/27/1 18/15/1
f 21/17/1 20/20/1 19/13/1 22/12/1
f 14/16/1 18/15/1 51/27/1 46/28/1
f 5/29/1 23/30/1 26/31/1 7/32/1
f 23/30/1 24/25/1 25/5/1 26/31/1
f 6/33/1 27/34/1 66/35/1 36/36/1
f 7/32/1 26/31/1 27/34/1 6/33/1
f 26/31/1 25/5/1 28/8/1 27/34/1
f 1/37/1 4/38/1 3/39/1 2/40/1
f 31/41/1 33/42/1 4/38/1 1/37/1
f 61/43/1 64/44/1 47/45/1 49/46/1
f 64/44/1 65/10/1 45/9/1 47/45/1
f 43/47/1 50/48/1 55/49/1 58/50/1
f 50/48/1 48/51/1 54/52/1 55/49/1
f 57/53/1 56/54/1 42/55/1 39/56/1
f 56/54/1 53/57/1 41/58/1 42/55/1
f 53/57/1 52/24/1 40/23/1 41/58/1
f 60/59/1 61/43/1 49/46/1 44/60/1
f 56/54/1 55/49/1 54/52/1 53/57/1
f 53/57/1 54/52/1 51/27/1 52/24/1
f 57/53/1 58/50/1 55/49/1 56/54/1
f 48/51/1 46/28/1 51/27/1 54/52/1
f 35/61/1 38/62/1 62/63/1 59/64/1
f 59/64/1 62/63/1 61/43/1 60/59/1
f 37/65/1 36/36/1 66/35/1 63/66/1
f 38/62/1 37/65/1 63/66/1 62/63/1
f 62/63/1 63/66/1 64/44/1 61/43/1
f 29/67/1 30/3/1 32/2/1 34/68/1
f 31/41/1 29/67/1 34/68/1 33/42/1
f 3/39/1 68/1/1 67/4/1 2/40/1
f 101/69/1 103/70/1 104/71/1 102/72/1 71/73/1 72/74/1 73/75/1 74/76/1 75/77/1 76/78/1 77/79/1 78/80/1 79/81/1 80/82/1 69/83/1 70/84/1 86/85/1 87/86/1 88/87/1 89/88/1 81/89/1 82/90/1 83/91/1 84/92/1 85/93/1 90/94/1 91/95/1 92/96/1 93/97/1 94/98/1 95/99/1 96/100/1 97/101/1 98/102/1 99/103/1 100/104/1
f 172/105/2 171/106/2 134/107/2 136/108/2
f 129/109/2 132/110/2 117/111/2 119/112/2
f 132/110/2 169/113/2 149/114/2 117/111/2
f 115/115/2 120/116/2 123/117/2 126/118/2
f 120/116/2 118/119/2 122/120/2 123/117/2
f 125/121/2 124/122/2 114/123/2 112/124/2
f 124/122/2 121/125/2 113/126/2 114/123/2
f 121/125/2 156/127/2 144/128/2 113/126/2
f 128/129/2 129/109/2 119/112/2 116/130/2
f 124/122/2 123/117/2 122/120/2 121/125/2
f 121/125/2 122/120/2 155/131/2 156/127/2
f 125/121/2 126/118/2 123/117/2 124/122/2
f 118/119/2 150/132/2 155/131/2 122/120/2
f 109/133/2 111/134/2 130/135/2 127/136/2
f 127/136/2 130/135/2 129/109/2 128/129/2
f 110/137/2 140/138/2 170/139/2 131/140/2
f 111/134/2 110/137/2 131/140/2 130/135/2
f 130/135/2 131/140/2 132/110/2 129/109/2
f 105/141/2 106/142/2 107/143/2 108/144/2
f 135/145/2 105/141/2 108/144/2 137/146/2
f 165/147/2 153/148/2 151/149/2 168/150/2
f 168/150/2 151/149/2 149/114/2 169/113/2
f 147/151/2 162/152/2 159/153/2 154/154/2
f 154/154/2 159/153/2 158/155/2 152/156/2
f 161/157/2 143/158/2 146/159/2 160/160/2
f 160/160/2 146/159/2 145/161/2 157/162/2
f 157/162/2 145/161/2 144/128/2 156/127/2
f 164/163/2 148/164/2 153/148/2 165/147/2
f 160/160/2 157/162/2 158/155/2 159/153/2
f 157/162/2 156/127/2 155/131/2 158/155/2
f 161/157/2 160/160/2 159/153/2 162/152/2
f 152/156/2 158/155/2 155/131/2 150/132/2
f 139/165/2 163/166/2 166/167/2 142/168/2
f 163/166/2 164/163/2 165/147/2 166/167/2
f 141/169/2 167/170/2 170/139/2 140/138/2
f 142/168/2 166/167/2 167/170/2 141/169/2
f 166/167/2 165/147/2 168/150/2 167/170/2
f 133/171/2 138/172/2 136/108/2 134/107/2
f 135/145/2 137/146/2 138/172/2 133/171/2
f 107/143/2 106/142/2 171/106/2 172/105/2
f 205/173/2 204/174/2 203/175/2 202/176/2 201/177/2 200/178/2 199/179/2 198/180/2 197/181/2 196/182/2 195/183/2 194/184/2 189/185/2 188/186/2 187/187/2 186/188/2 185/189/2 193/190/2 192/191/2 191/192/2 190/193/2 174/194/2 173/195/2 184/196/2 183/197/2 182/198/2 181/199/2 180/200/2 179/201/2 178/202/2 177/203/2 176/204/2 175/205/2 206/206/2 208/207/2 207/208/2
f 1/37/3 2/40/3 106/142/3 105/141/3
f 3/39/4 4/38/4 108/144/4 107/143/4
f 31/41/5 1/37/5 105/141/5 135/145/5
f 4/38/6 33/42/6 137/146/6 108/144/6
f 6/33/6 36/36/6 140/138/6 110/137/6
f 7/32/6 6/33/6 110/137/6 111/134/6
f 5/29/7 7/32/6 111/134/6 109/133/7
f 40/23/5 9/21/5 113/126/5 144/128/5
f 9/21/5 10/19/5 114/123/5 113/126/5
f 10/19/5 8/18/8 112/124/8 114/123/5
f 45/9/5 13/7/5 117/111/5 149/114/5
f 14/16/6 46/28/6 150/132/6 118/119/6
f 13/7/5 15/6/5 119/112/5 117/111/5
f 16/14/6 14/16/6 118/119/6 120/116/6
f 15/6/5 12/26/5 116/130/5 119/112/5
f 11/11/6 16/14/6 120/116/6 115/115/6
f 12/26/9 24/25/9 128/129/9 116/130/9
f 21/17/10 22/12/11 126/118/11 125/121/10
f 22/12/11 11/11/12 115/115/12 126/118/11
f 8/18/8 21/17/10 125/121/10 112/124/8
f 23/30/9 5/29/7 109/133/7 127/136/9
f 24/25/9 23/30/9 127/136/9 128/129/9
f 27/34/13 28/8/14 132/110/14 131/140/13
f 66/35/5 27/34/13 131/140/13 170/139/5
f 28/8/6 65/10/6 169/113/6 132/110/6
f 2/40/6 67/4/6 171/106/6 106/142/6
f 68/1/5 3/39/5 107/143/5 172/105/5
f 30/3/4 29/67/4 133/171/4 134/107/4
f 34/68/3 32/2/3 136/108/3 138/172/3
f 29/67/5 31/41/5 135/145/5 133/171/5
f 33/42/6 34/68/6 138/172/6 137/146/6
f 36/36/6 37/65/6 141/169/6 140/138/6
f 37/65/6 38/62/6 142/168/6 141/169/6
f 38/62/6 35/61/15 139/165/15 142/168/6
f 41/58/5 40/23/5 144/128/5 145/161/5
f 42/55/5 41/58/5 145/161/5 146/159/5
f 39/56/16 42/55/5 146/159/5 143/158/16
f 47/45/5 45/9/5 149/114/5 151/149/5
f 46/28/6 48/51/6 152/156/6 150/132/6
f 49/46/5 47/45/5 151/149/5 153/148/5
f 48/51/6 50/48/6 154/154/6 152/156/6
f 44/60/5 49/46/5 153/148/5 148/164/5
f 50/48/6 43/47/6 147/151/6 154/154/6
f 60/59/17 44/60/17 148/164/17 164/163/17
f 58/50/18 57/53/19 161/157/19 162/152/18
f 43/47/20 58/50/18 162/152/18 147/151/20
f 57/53/19 39/56/16 143/158/16 161/157/19
f 35/61/15 59/64/17 163/166/17 139/165/15
f 59/64/17 60/59/17 164/163/17 163/166/17
f 64/44/21 63/66/22 167/170/22 168/150/21
f 63/66/22 66/35/5 170/139/5 167/170/22
f 65/10/6 64/44/6 168/150/6 169/113/6
f 32/2/5 68/1/5 172/105/5 136/108/5
f 67/4/6 30/3/6 134/107/6 171/106/6
f 72/74/23 71/73/24 175/205/24 176/204/23
f 73/75/25 72/74/23 176/204/23 177/203/25
f 74/76/26 73/75/25 177/203/25 178/202/26
f 75/77/4 74/76/26 178/202/26 179/201/4
f 76/78/27 75/77/4 179/201/4 180/200/27
f 77/79/28 76/78/27 180/200/27 181/199/28
f 78/80/29 77/79/28 181/199/28 182/198/29
f 79/81/30 78/80/29 182/198/29 183/197/30
f 80/82/31 79/81/30 183/197/30 184/196/31
f 69/83/6 80/82/31 184/196/31 173/195/6
f 82/90/32 81/89/6 185/189/6 186/188/32
f 83/91/33 82/90/32 186/188/32 187/187/33
f 84/92/34 83/91/33 187/187/33 188/186/34
f 85/93/35 84/92/34 188/186/34 189/185/35
f 87/86/29 86/85/36 190/193/36 191/192/29
f 88/87/30 87/86/29 191/192/29 192/191/30
f 89/88/31 88/87/30 192/191/30 193/190/31
f 81/89/6 89/88/31 193/190/31 185/189/6
f 91/95/32 90/94/37 194/184/37 195/183/32
f 92/96/33 91/95/32 195/183/32 196/182/33
f 93/97/38 92/96/33 196/182/33 197/181/38
f 94/98/39 93/97/38 197/181/38 198/180/39
f 95/99/40 94/98/39 198/180/39 199/179/40
f 96/100/3 95/99/40 199/179/40 200/178/3
f 97/101/41 96/100/3 200/178/3 201/177/41
f 98/102/42 97/101/41 201/177/41 202/176/42
f 99/103/43 98/102/42 202/176/42 203/175/43
f 100/104/44 99/103/43 203/175/43 204/174/44
f 101/69/45 100/104/44 204/174/44 205/173/45
f 90/94/37 85/93/46 189/185/46 194/184/37
f 70/84/47 69/83/6 173/195/6 174/194/47
f 86/85/36 70/84/48 174/194/48 190/193/36
f 71/73/24 102/72/49 206/206/49 175/205/24
f 103/70/4 101/69/4 205/173/4 207/208/4
f 104/71/5 103/70/5 207/208/5 208/207/5
f 102/72/3 104/71/3 208/207/3 206/206/3
